<svg id="Слой_1" data-name="Слой 1" xmlns="http://www.w3.org/2000/svg" viewBox="0 0 1500 1500"><defs><style>.cls-1{fill:#42454c;}.cls-2{fill:#fff;}</style></defs><rect class="cls-1" x="194.88" y="340.51" width="1110.24" height="147.98" rx="29.5"/><path class="cls-2" d="M1275.62,341a29,29,0,0,1,29,29v89a29,29,0,0,1-29,29H224.38a29,29,0,0,1-29-29h0V370a29,29,0,0,1,29-29H1275.62m0-1H224.38a30,30,0,0,0-30,30v89a30,30,0,0,0,30,30H1275.62a30,30,0,0,0,30-30h0V370A30,30,0,0,0,1275.62,340Z"/><rect class="cls-1" x="194.88" y="676.01" width="1110.24" height="147.98" rx="29.5"/><path class="cls-2" d="M1275.62,676.51a29,29,0,0,1,29,29h0v89a29,29,0,0,1-29,29H224.38a29,29,0,0,1-29-29v-89a29,29,0,0,1,29-29H1275.62m0-1H224.38a30,30,0,0,0-30,30h0v89a30,30,0,0,0,30,30H1275.62a30,30,0,0,0,30-30v-89a30,30,0,0,0-30-30Z"/><rect class="cls-1" x="194.88" y="1011.51" width="1110.24" height="147.98" rx="29.5"/><path class="cls-2" d="M1275.62,1012a29,29,0,0,1,29,29v89a29,29,0,0,1-29,29H224.38a29,29,0,0,1-29-29v-89a29,29,0,0,1,29-29H1275.62m0-1H224.38a30,30,0,0,0-30,30h0v89a30,30,0,0,0,30,30H1275.62a30,30,0,0,0,30-30h0v-89a30,30,0,0,0-30-30Z"/></svg>